<svg xmlns="http://www.w3.org/2000/svg" xmlns:xlink="http://www.w3.org/1999/xlink" width="235.523" height="52.339" viewBox="0 0 235.523 52.339">
  <defs>
    <clipPath id="clip-path">
      <rect id="Rectangle_1" data-name="Rectangle 1" width="235.523" height="52.339" transform="translate(0 0)" fill="none"/>
    </clipPath>
  </defs>
  <g id="CMIT_Logo_-_Vector" data-name="CMIT Logo - Vector" transform="translate(0 0)">
    <g id="Group_2" data-name="Group 2">
      <g id="Group_1" data-name="Group 1" clip-path="url(#clip-path)">
        <path id="Path_1" data-name="Path 1" d="M118.456,24.095c.547.366,1.106.739,1.619,1.157a6.691,6.691,0,0,1,1.369,1.448,5.374,5.374,0,0,1,.52,4.651c-1.468,5.465-6.232,7.345-10.986,7.345a20.666,20.666,0,0,1-3.614-.337c-.99-.178-1.718-.374-2.029-.449l-.164-.04.9-3.331.173.079a13.69,13.69,0,0,0,1.9.747,13.022,13.022,0,0,0,3.814.579c3.063,0,5.738-1.537,6.473-4.271A3.352,3.352,0,0,0,118,28.587a5.26,5.26,0,0,0-1.037-1.01c-.4-.313-.847-.6-1.285-.9l-1.891-1.266c-.5-.336-1.041-.678-1.561-1.061a7.419,7.419,0,0,1-1.443-1.342,4.71,4.71,0,0,1-.724-4.443c1.216-4.528,5.358-6.712,10.047-6.712a19.265,19.265,0,0,1,3.164.267c.871.145,1.543.313,1.958.407l.167.037-.867,3.224-.174-.082a12.343,12.343,0,0,0-5.154-1.1c-2.836,0-5.032,1.494-5.648,3.787a2.655,2.655,0,0,0,.6,2.571,6.512,6.512,0,0,0,1.061.964c.4.3.833.584,1.25.862Z" fill="#fff" fill-rule="evenodd"/>
        <path id="Path_2" data-name="Path 2" d="M123.926,29.254c1.4-5.2,4.522-9.43,9.753-9.43,5.345,0,6.219,4.333,4.826,9.517-1.4,5.2-4.54,9.356-9.806,9.356-5.309,0-6.165-4.259-4.773-9.443m5.343,6.989c2.731,0,4.881-2.571,6.079-7.027s.4-6.939-2.238-6.939c-2.694,0-4.818,2.6-6.006,7.027-1.208,4.5-.438,6.939,2.165,6.939" fill="#fff" fill-rule="evenodd"/>
        <path id="Path_3" data-name="Path 3" d="M145.662,12.265h2.825L141.5,38.287h-2.825Z" fill="#fff" fill-rule="evenodd"/>
        <path id="Path_4" data-name="Path 4" d="M155.767,34.883a7.446,7.446,0,0,1-6.3,3.814c-3.174,0-3.947-2.712-3.149-5.682l3.433-12.781h2.825l-2.7,10.038c-.86,3.2-1.444,5.562.853,5.562,3.159,0,6.111-4.969,6.973-8.181l1.993-7.419h2.825l-4.849,18.054h-2.825Z" fill="#fff" fill-rule="evenodd"/>
        <path id="Path_5" data-name="Path 5" d="M169.971,38.493l-.105.015a15.689,15.689,0,0,1-2.268.188c-3.617,0-4.633-1.517-3.755-4.79l3.014-11.22H164l.659-2.454h2.853l1.1-4.079,3.313-1.819-1.584,5.9h4.682l-.66,2.454h-4.681l-2.9,10.786c-.31,1.155-.47,2.769,1.9,2.769a4.02,4.02,0,0,0,.929-.094c.264-.06.5-.142.8-.234l.283-.088Z" fill="#fff" fill-rule="evenodd"/>
        <path id="Path_6" data-name="Path 6" d="M178.208,20.233h2.825l-4.849,18.054h-2.825Zm1.191-6.3h3.63l-.989,3.683h-3.63Z" fill="#fff" fill-rule="evenodd"/>
        <path id="Path_7" data-name="Path 7" d="M181.6,29.254c1.4-5.2,4.522-9.43,9.753-9.43,5.345,0,6.218,4.333,4.825,9.517-1.4,5.2-4.539,9.356-9.806,9.356-5.31,0-6.165-4.259-4.773-9.443m5.342,6.989c2.732,0,4.882-2.571,6.079-7.027s.4-6.939-2.239-6.939c-2.694,0-4.818,2.6-6.006,7.027-1.208,4.5-.438,6.939,2.165,6.939" fill="#fff" fill-rule="evenodd"/>
        <path id="Path_8" data-name="Path 8" d="M202.879,23.675a7.538,7.538,0,0,1,6.344-3.852c3.135,0,3.947,2.711,3.149,5.683l-3.434,12.781h-2.825l2.7-10.039c.859-3.2,1.443-5.562-.853-5.562-3.16,0-6.148,4.97-7.011,8.181l-1.992,7.419h-2.825l4.85-18.054H203.8Z" fill="#fff" fill-rule="evenodd"/>
        <path id="Path_9" data-name="Path 9" d="M222,27.971c.393.242.808.488,1.2.769a5,5,0,0,1,1.081,1.014,3.744,3.744,0,0,1,.483,3.458c-.974,3.629-3.959,5.484-8.071,5.484a14.017,14.017,0,0,1-4.608-.753l-.143-.052.706-2.632.166.063c.2.074.761.3,1.521.517a10.135,10.135,0,0,0,2.672.4c2.4,0,4.336-.811,4.856-2.745a1.8,1.8,0,0,0-.589-1.9,5.476,5.476,0,0,0-.835-.627c-.295-.186-.576-.346-.793-.5l-1.343-.856c-.341-.234-.728-.471-1.1-.739a5.453,5.453,0,0,1-1.065-.956,3.425,3.425,0,0,1-.56-3.291c.795-2.958,3.449-4.814,7.378-4.814a12.728,12.728,0,0,1,2.415.231c.66.127,1.181.276,1.56.37l.162.04-.722,2.692-.172-.073a10.221,10.221,0,0,0-3.777-.806c-2.088,0-3.663,1.025-3.974,2.186A1.356,1.356,0,0,0,219,25.954a5.986,5.986,0,0,0,.836.568c.312.184.641.365.94.552Z" fill="#fff" fill-rule="evenodd"/>
        <path id="Path_10" data-name="Path 10" d="M14.962,35.861l-.714,2.263a16.312,16.312,0,0,1-6.984,1.235c-6.5,0-8.748-5.093-6.3-12.86,2.224-7.047,6.448-12.191,13.089-12.191,4.163,0,6.582,1.88,6.665,4.8H15.393c.16-1.594-.223-3.049-2.167-3.049-3.157,0-5.056,3.807-6.614,8.744-2.4,7.614-.56,11.78,3.665,11.78a17.253,17.253,0,0,0,4.685-.72" fill="#fff"/>
        <path id="Path_11" data-name="Path 11" d="M19.814,39.268l5.439-17.231c1.137-3.6.67-4.944-2.131-5.047l.324-1.028,8.832-1.647-1.932,6.59h.093c1.358-1.8,4.857-6.121,9.037-6.121,4.318,0,4.3,3.446,3.893,5.761h.093c1.609-2.006,4.558-5.761,8.737-5.761,5.9,0,4.014,5.967,2.861,9.619L50.368,39.268H45.725l4.432-14.043c1.006-3.189,2.192-6.944-.92-6.944-3.529,0-6.905,5.4-8.074,9.1l-3.75,11.882H32.769l4.205-13.322c1.283-4.064,2.419-7.664-.692-7.664-3.2,0-6.711,4.784-7.863,8.436L24.458,39.268Z" fill="#fff"/>
        <path id="Path_12" data-name="Path 12" d="M56.915,39.222l5.3-17.309c1.112-3.523.488-6.182-2.252-6.282l.351-1.058H68.9l-7.6,24.649Z" fill="#fff"/>
        <path id="Path_13" data-name="Path 13" d="M79.195,16.676H77.3c-2.865,0-3.957.9-5.01,3.606l-.04.1H70.875l1.95-5.821H91.749L90.08,20.5H88.7l.066-.214c.86-2.792.051-3.61-2.722-3.61H83.628l-7.1,22.547H72.091Z" fill="#fff"/>
        <path id="Path_14" data-name="Path 14" d="M94,25.714a3.7,3.7,0,1,0,4.006-3.422A3.746,3.746,0,0,0,94,25.714" fill="#e82727" fill-rule="evenodd"/>
        <path id="Path_15" data-name="Path 15" d="M99.265,17.1a2.968,2.968,0,1,0,3.261-2.688A3.007,3.007,0,0,0,99.265,17.1" fill="#e82727"/>
        <path id="Path_16" data-name="Path 16" d="M104.181,9.94A2.565,2.565,0,1,0,107,7.617a2.6,2.6,0,0,0-2.818,2.323" fill="#e82727"/>
        <path id="Path_17" data-name="Path 17" d="M110.254,5.07a2.267,2.267,0,1,0,2.492-2.054,2.3,2.3,0,0,0-2.492,2.054" fill="#e82727"/>
        <path id="Path_18" data-name="Path 18" d="M116.975,2.2A2.03,2.03,0,1,0,119.205.363,2.039,2.039,0,0,0,116.975,2.2" fill="#e82727"/>
        <path id="Path_19" data-name="Path 19" d="M123.708,1.55a1.7,1.7,0,1,0,3.381.362,1.7,1.7,0,1,0-3.381-.362" fill="#e82727"/>
        <path id="Path_20" data-name="Path 20" d="M129.814,2.3A1.512,1.512,0,1,0,131.475.931,1.518,1.518,0,0,0,129.814,2.3" fill="#e82727"/>
        <path id="Path_21" data-name="Path 21" d="M134.964,4.909A1.228,1.228,0,1,0,136.313,3.8a1.244,1.244,0,0,0-1.349,1.113" fill="#e82727"/>
        <path id="Path_22" data-name="Path 22" d="M96.617,35.243a2.968,2.968,0,1,0-3.261,2.689,3.008,3.008,0,0,0,3.261-2.689" fill="#e82727"/>
        <path id="Path_23" data-name="Path 23" d="M91.7,42.4a2.565,2.565,0,1,0-2.818,2.323A2.6,2.6,0,0,0,91.7,42.4" fill="#e82727"/>
        <path id="Path_24" data-name="Path 24" d="M85.627,47.269a2.267,2.267,0,1,0-2.491,2.054,2.3,2.3,0,0,0,2.491-2.054" fill="#e82727"/>
        <path id="Path_25" data-name="Path 25" d="M78.907,50.137a2.03,2.03,0,1,0-2.231,1.838,2.058,2.058,0,0,0,2.231-1.838" fill="#e82727"/>
        <path id="Path_26" data-name="Path 26" d="M72.174,50.789a1.7,1.7,0,1,0-1.868,1.54,1.724,1.724,0,0,0,1.868-1.54" fill="#e82727"/>
        <path id="Path_27" data-name="Path 27" d="M66.067,50.038a1.512,1.512,0,1,0-1.661,1.369,1.532,1.532,0,0,0,1.661-1.369" fill="#e82727"/>
        <path id="Path_28" data-name="Path 28" d="M60.917,47.429a1.228,1.228,0,1,0-1.349,1.112,1.245,1.245,0,0,0,1.349-1.112" fill="#e82727"/>
        <path id="Path_29" data-name="Path 29" d="M230.09,16.624a2.887,2.887,0,0,0-.847,2.093,2.919,2.919,0,0,0,.842,2.107,2.862,2.862,0,0,0,4.112,0,3.03,3.03,0,0,0,0-4.2,2.857,2.857,0,0,0-4.108,0m4.443,4.533a3.33,3.33,0,0,1-4.779,0,3.372,3.372,0,0,1-.979-2.44,3.335,3.335,0,0,1,.989-2.426,3.34,3.34,0,0,1,4.77,0,3.486,3.486,0,0,1,0,4.866m-1.758-3.742a1.647,1.647,0,0,0-.786-.141h-.556v1.367h.589a1.729,1.729,0,0,0,.62-.084.684.684,0,0,0,.134-1.142m-.7-.595a2.783,2.783,0,0,1,1.012.136.938.938,0,0,1,.576.955.826.826,0,0,1-.364.745,1.39,1.39,0,0,1-.537.183.9.9,0,0,1,.639.37,1.048,1.048,0,0,1,.2.586v.276c0,.088,0,.181.009.281a.607.607,0,0,0,.033.2l.022.047h-.612c0-.012-.006-.025-.009-.037s-.007-.027-.01-.042l-.014-.122v-.3a.934.934,0,0,0-.349-.866,1.548,1.548,0,0,0-.726-.121h-.516v1.489h-.653V16.821Z" fill="#fff" fill-rule="evenodd"/>
      </g>
    </g>
  </g>
</svg>
